HIERARCHY
ROOT Hips
{
	OFFSET -0.001795 -0.223333 0.028219
	CHANNELS 6 Xposition Yposition Zposition Zrotation Yrotation Xrotation 
	JOINT LeftUpLeg
	{
		OFFSET 0.069520 -0.091406 -0.006815
		CHANNELS 3 Zrotation Yrotation Xrotation
		JOINT LeftLeg
		{
			OFFSET 0.034277 -0.375199 -0.004496
			CHANNELS 3 Zrotation Yrotation Xrotation
			JOINT LeftFoot
			{
				OFFSET -0.013596 -0.397961 -0.043693
				CHANNELS 3 Zrotation Yrotation Xrotation
				JOINT LeftToe
				{
					OFFSET 0.026358 -0.055791 0.119288
					CHANNELS 3 Zrotation Yrotation Xrotation
					End Site
					{
						OFFSET 0.000000 0.000000 0.000000
					}
				}
			}
		}
	}
	JOINT RightUpLeg
	{
		OFFSET -0.067670 -0.090522 -0.004320
		CHANNELS 3 Zrotation Yrotation Xrotation
		JOINT RightLeg
		{
			OFFSET -0.038290 -0.382569 -0.008850
			CHANNELS 3 Zrotation Yrotation Xrotation
			JOINT RightFoot
			{
				OFFSET 0.015774 -0.398415 -0.042312
				CHANNELS 3 Zrotation Yrotation Xrotation
				JOINT RightToe
				{
					OFFSET -0.025372 -0.048144 0.123348
					CHANNELS 3 Zrotation Yrotation Xrotation
					End Site
					{
						OFFSET 0.000000 0.000000 0.000000
					}
				}
			}
		}
	}
	JOINT Spine
	{
		OFFSET -0.002533 0.108963 -0.026696
		CHANNELS 3 Zrotation Yrotation Xrotation
		JOINT Spine1
		{
			OFFSET 0.005487 0.135180 0.001092
			CHANNELS 3 Zrotation Yrotation Xrotation
			JOINT Spine2
			{
				OFFSET 0.001457 0.052922 0.025425
				CHANNELS 3 Zrotation Yrotation Xrotation
				JOINT Neck
				{
					OFFSET -0.002778 0.213870 -0.042857
					CHANNELS 3 Zrotation Yrotation Xrotation
					JOINT Head
					{
						OFFSET 0.005152 0.064970 0.051349
						CHANNELS 3 Zrotation Yrotation Xrotation
						End Site
						{
							OFFSET 0.000000 0.000000 0.000000
						}
					}
				}
				JOINT LeftShoulder
				{
					OFFSET 0.078845 0.121749 -0.034090
					CHANNELS 3 Zrotation Yrotation Xrotation
					JOINT LeftArm
					{
						OFFSET 0.090977 0.030469 -0.008868
						CHANNELS 3 Zrotation Yrotation Xrotation
						JOINT LeftForeArm
						{
							OFFSET 0.259612 -0.012772 -0.027456
							CHANNELS 3 Zrotation Yrotation Xrotation
							JOINT LeftHand
							{
								OFFSET 0.249234 0.008986 -0.001171
								CHANNELS 3 Zrotation Yrotation Xrotation
								End Site
								{
									OFFSET 0.000000 0.000000 0.000000
								}
							}
						}
					}
				}
				JOINT RightShoulder
				{
					OFFSET -0.081759 0.118833 -0.038615
					CHANNELS 3 Zrotation Yrotation Xrotation
					JOINT RightArm
					{
						OFFSET -0.096012 0.032551 -0.009143
						CHANNELS 3 Zrotation Yrotation Xrotation
						JOINT RightForeArm
						{
							OFFSET -0.253742 -0.013329 -0.021401
							CHANNELS 3 Zrotation Yrotation Xrotation
							JOINT RightHand
							{
								OFFSET -0.255298 0.007772 -0.005559
								CHANNELS 3 Zrotation Yrotation Xrotation
								End Site
								{
									OFFSET 0.000000 0.000000 0.000000
								}
							}
						}
					}
				}
			}
		}
	}
}
MOTION
Frames: 11
Frame Time: 0.050000
-0.154966 0.955451 0.945491 -5.665323 -36.853566 15.727298 2.483515 0.274447 -20.785138 -1.329927 0.614911 8.030881 10.337616 16.665611 15.398926 0.000000 0.000000 0.000000 -0.223580 2.962814 -20.612155 2.674217 0.426641 8.409239 -1.305504 -14.646984 17.328768 0.000000 0.000000 0.000000 1.576067 4.868405 45.803179 -7.391509 1.524370 -23.232990 -8.526846 -7.095589 27.517870 4.582892 -4.742684 -19.904142 0.000000 0.000000 0.000000 -17.584489 -26.191723 19.297694 -12.612027 -37.234806 -0.723215 54.275174 -28.213011 -10.958102 0.000000 0.000000 0.000000 25.111458 2.189884 -9.520327 57.422228 -10.483657 -10.901345 37.915654 51.299378 15.441160 0.000000 0.000000 0.000000 
-0.155028 0.955694 0.944367 -5.588730 -36.618121 15.713323 2.583488 0.297809 -20.966652 -1.493920 0.656933 8.128296 10.186179 16.438422 15.455542 0.000000 0.000000 0.000000 -0.073620 2.964318 -20.598493 2.652853 0.412177 8.253562 -1.798744 -15.347351 17.381458 0.000000 0.000000 0.000000 1.544727 4.861168 45.939123 -7.485627 1.542139 -23.317614 -8.550287 -6.828496 27.371190 4.586907 -4.722510 -19.339544 0.000000 0.000000 0.000000 -18.465461 -26.534336 19.799752 -12.207829 -37.347366 -0.871135 54.204703 -28.528232 -11.206812 0.000000 0.000000 0.000000 25.717308 1.983702 -9.682529 57.043315 -10.530950 -10.763115 37.389432 51.369318 15.381214 0.000000 0.000000 0.000000 
-0.154992 0.955777 0.943526 -5.724229 -36.675411 15.918068 2.788074 0.382790 -21.286434 -1.606732 0.705688 8.383737 10.191454 16.418248 15.522269 0.000000 0.000000 0.000000 0.025835 2.996301 -20.696975 2.835686 0.400263 8.261749 -1.920135 -15.402230 17.067162 0.000000 0.000000 0.000000 1.339810 5.028025 46.159817 -7.521740 1.541057 -23.522325 -8.558582 -6.691014 27.416897 4.566700 -4.694073 -19.249424 0.000000 0.000000 0.000000 -18.997323 -26.627802 20.071981 -11.790375 -37.350731 -1.005167 54.205114 -28.979091 -11.489842 0.000000 0.000000 0.000000 26.207342 2.147696 -9.712587 56.667771 -10.512374 -10.581738 36.798453 51.339881 15.165847 0.000000 0.000000 0.000000 
-0.154899 0.955902 0.942755 -5.784137 -36.601749 16.007920 2.962999 0.456078 -21.625726 -1.763722 0.774999 8.776154 10.116313 16.295573 15.559941 0.000000 0.000000 0.000000 0.064597 2.998875 -20.700831 2.987225 0.386704 8.241605 -2.026927 -15.438114 16.810056 0.000000 0.000000 0.000000 1.358037 5.074475 46.448146 -7.708257 1.582033 -23.498853 -8.464607 -6.698965 27.186386 4.660316 -4.716861 -19.381869 0.000000 0.000000 0.000000 -19.747869 -27.069162 20.653211 -11.505503 -37.338244 -1.107720 54.117547 -29.468130 -11.798728 0.000000 0.000000 0.000000 26.635775 2.252373 -9.763578 56.369727 -10.605088 -10.452793 35.878558 51.517254 14.844653 0.000000 0.000000 0.000000 
-0.154665 0.955773 0.942082 -5.831275 -36.586723 16.185679 3.107318 0.533030 -22.020633 -1.922525 0.841928 9.096895 10.077137 16.229855 15.558189 0.000000 0.000000 0.000000 0.086824 3.038192 -20.863707 3.156059 0.379117 8.302352 -2.234729 -15.617469 16.507706 0.000000 0.000000 0.000000 1.225222 5.183979 46.617045 -7.579648 1.549743 -23.435132 -8.584652 -6.755174 26.938537 4.646653 -4.690584 -19.276033 0.000000 0.000000 0.000000 -20.202086 -27.178410 20.934857 -11.378848 -37.331567 -1.159781 53.902847 -30.026736 -12.051451 0.000000 0.000000 0.000000 26.860488 2.399029 -9.760675 56.377825 -10.527552 -10.350782 34.970518 51.594224 14.448125 0.000000 0.000000 0.000000 
-0.154317 0.955795 0.941473 -5.946973 -36.339746 16.358980 3.285074 0.599902 -22.361886 -2.011122 0.879835 9.355473 9.926117 16.024643 15.501582 0.000000 0.000000 0.000000 0.142072 3.051847 -20.921741 3.294393 0.366940 8.320957 -2.319531 -15.612284 16.253165 0.000000 0.000000 0.000000 1.382988 5.128460 46.930341 -7.864526 1.614287 -23.681838 -8.471501 -6.971552 26.998872 4.431242 -4.583173 -19.065667 0.000000 0.000000 0.000000 -20.518731 -27.465765 21.274493 -11.227781 -37.435175 -1.212116 53.601578 -30.764393 -12.365545 0.000000 0.000000 0.000000 27.164211 2.574109 -9.793137 56.202546 -10.467859 -10.219243 34.334213 51.579541 14.160199 0.000000 0.000000 0.000000 
-0.153766 0.955679 0.941140 -5.872075 -36.095182 16.382413 3.395868 0.635476 -22.602987 -2.302804 0.964777 9.515889 9.767794 15.820092 15.427020 0.000000 0.000000 0.000000 0.104588 3.065962 -21.021116 3.217848 0.367174 8.306387 -2.413121 -15.765815 16.341919 0.000000 0.000000 0.000000 1.556815 5.057338 47.189312 -8.018524 1.664907 -23.528370 -8.386716 -7.232296 26.807440 4.197682 -4.424745 -19.216189 0.000000 0.000000 0.000000 -20.548394 -27.555591 21.358940 -11.336973 -37.950411 -1.158858 53.153703 -31.475147 -12.557431 0.000000 0.000000 0.000000 26.985856 2.579504 -9.743682 56.528034 -10.165635 -10.165845 33.408735 51.494505 13.669826 0.000000 0.000000 0.000000 
-0.153041 0.955641 0.941025 -5.822515 -35.913323 16.494178 3.474360 0.663983 -22.766339 -2.549127 1.018101 9.424590 9.656487 15.664342 15.397291 0.000000 0.000000 0.000000 0.024961 3.086487 -21.146262 3.247107 0.362624 8.304195 -2.515375 -15.858042 16.229062 0.000000 0.000000 0.000000 1.571736 4.988358 47.080203 -7.891392 1.644089 -23.286461 -8.370518 -6.979119 26.590086 4.425182 -4.492119 -19.569060 0.000000 0.000000 0.000000 -20.519601 -27.872541 21.446105 -11.410682 -37.988305 -1.126383 52.565463 -31.868313 -12.593984 0.000000 0.000000 0.000000 26.987394 2.607509 -9.598368 56.757174 -9.740096 -10.038587 31.821361 51.454728 12.985544 0.000000 0.000000 0.000000 
-0.152245 0.955591 0.941098 -5.671940 -35.566575 16.526105 3.358668 0.622920 -22.874139 -2.603150 1.006388 9.248080 9.477170 15.428533 15.328334 0.000000 0.000000 0.000000 -0.142892 3.099562 -21.284402 3.113240 0.377421 8.443404 -2.425641 -15.638820 16.071195 0.000000 0.000000 0.000000 1.798816 4.780775 47.010322 -8.051677 1.687428 -23.359392 -8.131751 -6.863811 26.698484 4.778929 -4.665727 -19.852720 0.000000 0.000000 0.000000 -20.711235 -27.921820 21.531156 -11.327212 -38.162995 -1.165282 52.495473 -32.023534 -12.659188 0.000000 0.000000 0.000000 26.874296 2.543627 -9.495866 56.694743 -9.396929 -9.917959 30.592983 51.104842 12.379382 0.000000 0.000000 0.000000 
-0.151494 0.955623 0.941107 -5.673946 -35.394821 16.641453 3.352355 0.618437 -22.941689 -2.638295 0.994146 9.056763 9.392547 15.310693 15.308032 0.000000 0.000000 0.000000 -0.289855 3.109745 -21.390130 3.149054 0.368961 8.398598 -2.244597 -15.395794 16.154713 0.000000 0.000000 0.000000 1.811731 4.708389 46.851569 -7.806446 1.640035 -23.299114 -8.017503 -6.405626 26.684061 5.351378 -4.886650 -20.569654 0.000000 0.000000 0.000000 -20.373187 -28.119318 21.362032 -11.207054 -38.120114 -1.154360 52.524559 -31.417077 -12.396404 0.000000 0.000000 0.000000 26.744065 2.470376 -9.300554 56.848469 -8.822360 -9.753952 28.697603 50.893364 11.556264 0.000000 0.000000 0.000000 
-0.150889 0.955513 0.941028 -5.558377 -35.175166 16.599789 3.226175 0.566261 -22.887465 -2.614694 0.961148 8.812693 9.291278 15.184025 15.243078 0.000000 0.000000 0.000000 -0.391709 3.105106 -21.421481 3.148842 0.363774 8.373513 -2.405154 -15.628852 16.203183 0.000000 0.000000 0.000000 1.858341 4.573439 46.574971 -7.712545 1.624888 -23.325886 -7.788656 -6.001154 26.614582 5.797838 -5.101684 -20.536986 0.000000 0.000000 0.000000 -20.303301 -28.226263 21.288185 -11.134881 -38.210951 -1.155974 52.437037 -30.856998 -12.127739 0.000000 0.000000 0.000000 26.623486 2.354094 -9.146581 56.763294 -8.314586 -9.553037 27.146461 50.678724 10.889490 0.000000 0.000000 0.000000 
